<?xml version="1.0" encoding="UTF-8"?>
<svg width="24" height="24" viewBox="0 0 24 24" fill="none" xmlns="http://www.w3.org/2000/svg">
    <path d="M12 2C6.48 2 2 6.48 2 12C2 17.52 6.48 22 12 22C17.52 22 22 17.52 22 12C22 6.48 17.52 2 12 2ZM16 12.8C15.5 12.8 15.1 12.7 14.7 12.5C14.3 13.5 13.3 14.2 12.2 14.2C10.7 14.2 9.5 13 9.5 11.5C9.5 10 10.7 8.8 12.2 8.8C12.9 8.8 13.5 9.1 14 9.5V7.3C13.4 7.1 12.8 7 12.2 7C9.7 7 7.7 9 7.7 11.5C7.7 14 9.7 16 12.2 16C14.7 16 16.7 14 16.7 11.5V8.3C17.3 8.8 18.1 9.1 19 9.1V7.3C17.5 7.3 16.3 6.2 16 4.8V12.8Z" fill="#5c4f45"/>
</svg> 